<svg width="97" height="97" viewBox="0 0 97 97" fill="none" xmlns="http://www.w3.org/2000/svg">
<path d="M85.4445 70.8552C82.4359 67.824 75.1496 63.4002 71.6144 61.6175C67.0107 59.2986 66.6318 59.1091 63.0132 61.7975C60.5996 63.5916 58.9949 65.1943 56.1702 64.5919C53.3454 63.9894 47.2071 60.5925 41.8323 55.2348C36.4576 49.8771 32.8636 43.5607 32.2593 40.7454C31.6549 37.9301 33.2842 36.3444 35.0613 33.9251C37.5659 30.515 37.3764 29.9466 35.2356 25.3429C33.5665 21.7622 29.0139 14.5441 25.9713 11.5507C22.7165 8.33567 22.7165 8.90403 20.6193 9.77552C18.9119 10.4939 17.2738 11.3671 15.7257 12.3843C12.6944 14.3982 11.0121 16.071 9.8356 18.5851C8.65909 21.0991 8.13052 26.993 14.2063 38.0306C20.282 49.0681 24.5447 54.7119 33.3676 63.5101C42.1904 72.3083 48.9747 77.039 58.8926 82.6013C71.1616 89.4728 75.8676 88.1333 78.3892 86.9587C80.9108 85.7841 82.5913 84.1169 84.609 81.0857C85.6287 79.5401 86.5039 77.9039 87.2234 76.1978C88.0968 74.1081 88.6652 74.1081 85.4445 70.8552Z" stroke="url(#paint0_linear_3821_21127)" stroke-width="2" stroke-miterlimit="10"/>
<defs>
<linearGradient id="paint0_linear_3821_21127" x1="11.859" y1="9.0957" x2="66.8238" y2="25.1419" gradientUnits="userSpaceOnUse">
<stop stop-color="#323EC3"/>
<stop offset="1" stop-color="#7800E2"/>
</linearGradient>
</defs>
</svg>
