<svg width="133" height="101" viewBox="0 0 133 101" fill="none" xmlns="http://www.w3.org/2000/svg">
<path d="M128.876 58.4907C121.524 70.7823 114.099 82.72 102.462 91.6223C97.2498 95.6083 91.4551 100.194 84.6862 100.887C78.7868 101.49 72.5385 98.367 69.6867 93.1292C69.391 92.5871 69.1135 92.0396 68.8475 91.4819C67.0429 87.6728 65.9687 83.5234 65.6534 79.318C65.139 72.4154 69.077 64.035 64.6643 56.096C63.7968 54.5358 62.7314 53.0559 61.1138 51.8461C57.0529 48.8073 51.4189 50.1177 47.0406 51.84C40.3034 54.4906 35.115 61.458 29.9347 66.2913C25.3492 70.5689 17.0889 74.91 10.75 72.2973C6.70261 70.6304 3.9143 67.9447 2.24536 64.6797C-0.0480715 60.1874 -0.21753 54.5945 1.38254 49.0517C3.61927 41.2977 8.04478 35.3809 13.0435 29.1068C18.0172 22.8625 21.611 15.7277 28.0821 10.8309C32.7838 7.27429 40.853 3.22077 46.9866 4.09372C51.2899 4.70675 54.3051 8.88584 57.911 10.9058C64.4118 14.5455 71.868 16.5277 79.011 18.4863C88.3927 21.0599 97.3483 21.1287 107.008 21.3988C112.211 21.5426 119.09 22.6262 123.245 26.2051C124.038 26.889 124.754 27.6377 125.406 28.4378C128.206 31.8681 129.826 36.2349 131.247 40.3688C133.16 45.9352 131.899 53.4407 128.876 58.4914L128.876 58.4907Z" fill="url(#paint0_linear_4056_980)"/>
<mask id="mask0_4056_980" style="mask-type:luminance" maskUnits="userSpaceOnUse" x="54" y="48" width="17" height="20">
<path d="M70.9489 59.8174C70.8611 58.9641 70.4925 58.1728 70.1779 57.3849C69.712 56.2176 69.2205 55.0577 68.7912 53.8762C68.4232 52.8649 68.0782 51.9244 67.3768 51.094C66.7367 50.3365 65.8705 49.8423 64.9861 49.4217C63.7736 48.8445 62.3807 48.8282 61.0831 49.0787C59.8368 49.3197 58.4461 49.7208 57.3807 50.4249C56.5003 51.0069 55.5754 51.7489 55.0724 52.711C54.1765 54.4251 53.7302 56.4188 54.5066 58.2876C55.2858 60.1631 56.3194 61.9576 57.2247 63.7764C57.7075 64.7459 58.307 65.6985 59.2218 66.346C60.5329 67.2743 62.5543 67.8509 64.153 67.7705C66.2716 67.6645 68.2241 66.5971 69.4015 64.831C70.3784 63.3659 71.1319 61.5795 70.9502 59.8168L70.9489 59.8174Z" fill="white"/>
</mask>
<g mask="url(#mask0_4056_980)">
<path d="M70.9489 59.8174C70.8611 58.9641 70.4925 58.1728 70.1779 57.3849C69.712 56.2176 69.2205 55.0577 68.7912 53.8762C68.4232 52.8649 68.0782 51.9244 67.3768 51.094C66.7367 50.3365 65.8705 49.8423 64.9861 49.4217C63.7736 48.8445 62.3807 48.8282 61.0831 49.0787C59.8368 49.3197 58.4461 49.7208 57.3807 50.4249C56.5003 51.0069 55.5754 51.7489 55.0724 52.711C54.1765 54.4251 53.7302 56.4188 54.5066 58.2876C55.2858 60.1631 56.3194 61.9576 57.2247 63.7764C57.7075 64.7459 58.307 65.6985 59.2218 66.346C60.5329 67.2743 62.5543 67.8509 64.153 67.7705C66.2716 67.6645 68.2241 66.5971 69.4015 64.831C70.3784 63.3659 71.1319 61.5795 70.9502 59.8168L70.9489 59.8174Z" fill="url(#paint1_linear_4056_980)"/>
<path d="M64.2081 49.5441C66.9991 50.737 67.6027 53.9871 65.9054 56.2745C64.1176 58.6847 60.3058 59.9256 57.3886 58.6071C54.5793 57.3372 54.1081 54.1303 55.8452 51.8551C57.6316 49.5157 61.3597 48.3268 64.2081 49.5441Z" fill="url(#paint2_linear_4056_980)"/>
<path d="M63.401 60.085C67.6663 58.1358 69.9167 53.914 68.4275 50.6553C66.9383 47.3965 62.2734 46.335 58.0081 48.2842C53.7428 50.2333 51.4924 54.4552 52.9816 57.7139C54.4708 60.9726 59.1357 62.0342 63.401 60.085Z" fill="url(#paint3_radial_4056_980)"/>
</g>
<path d="M84.3496 92.2427C90.465 89.8143 95.3671 85.2564 99.9905 80.7128C110.228 70.6539 119.755 58.2989 124.457 44.595C126.377 38.9982 128.331 30.7433 123.128 26.2617C118.975 22.6835 112.096 21.5999 106.891 21.4554C97.2319 21.1854 88.2762 21.1165 78.8945 18.5429C71.7516 16.5843 64.2954 14.6021 57.7945 10.9625C54.1886 8.94248 51.1735 4.76339 46.8701 4.15036C40.7359 3.27741 32.6673 7.33093 27.9657 10.8875C21.4945 15.7843 17.9007 22.9191 12.927 29.1635C7.92831 35.4375 3.50213 41.3544 1.26608 49.1083C-0.494002 55.2102 -1.10973 66.4485 7.56442 67.5875C10.828 68.0162 14.2618 67.0622 17.1905 65.6647C25.7451 61.5828 31.6107 53.5365 39.3755 48.2806C44.6307 44.7233 50.5915 42.9518 56.8999 44.3756C63.6371 45.8967 70.2541 51.4078 69.2333 58.9957C68.8147 62.1074 67.43 65.1043 66.5402 68.1478C64.6768 74.5204 64.5317 83.9075 68.5649 89.5429C72.0054 94.3512 79.3725 94.2188 84.3489 92.2427H84.3496Z" fill="url(#paint4_linear_4056_980)"/>
<mask id="mask1_4056_980" style="mask-type:luminance" maskUnits="userSpaceOnUse" x="34" y="43" width="19" height="20">
<path d="M51.6158 52.4453C49.818 50.1749 48.0194 47.9051 46.2215 45.6346C46.2269 45.6413 46.2316 45.6494 46.237 45.6569C45.3783 44.5449 44.0658 44.0399 42.7412 43.8603C40.7954 43.5963 38.953 44.3491 37.409 45.5569C37.3225 45.6244 37.2368 45.694 37.1524 45.7656C35.8751 46.8451 34.7901 48.2629 34.5241 49.9521C34.2817 51.4941 34.4417 53.3298 35.5233 54.5437C35.5139 54.5329 35.5031 54.5227 35.4936 54.5119C35.4936 54.5119 41.0844 60.9899 41.1695 61.0884C42.1916 62.2726 44.7119 62.9288 46.2067 62.7155C47.5529 62.5231 48.9362 61.7892 49.9658 60.9176C51.4471 59.6632 52.5489 57.8167 52.5442 55.8433C52.5408 54.6058 52.2424 53.2373 51.6165 52.4467L51.6158 52.4453Z" fill="white"/>
</mask>
<g mask="url(#mask1_4056_980)">
<path d="M52.5426 55.842C52.5393 54.6045 52.2409 53.236 51.615 52.4454C49.8171 50.175 48.0186 47.9052 46.2207 45.6347C46.2261 45.6414 46.2308 45.6495 46.2362 45.657C45.2303 44.3546 42.7491 42.4406 41.2557 42.8821C39.5443 43.3885 38.0529 44.3904 36.7749 45.6178C35.6757 46.6737 33.7766 48.3568 33.8353 50.0204C33.8758 51.1667 34.7454 53.6715 35.5225 54.5438C35.513 54.533 35.5022 54.5228 35.4928 54.512C35.4928 54.512 41.0836 60.99 41.1686 61.0885C42.1908 62.2727 44.7111 62.9289 46.2058 62.7156C47.552 62.5232 48.9354 61.7893 49.965 60.9177C51.4462 59.6633 52.548 57.8168 52.5433 55.8434L52.5426 55.842Z" fill="url(#paint5_linear_4056_980)"/>
<path d="M42.673 43.8686C44.4013 44.2568 44.8544 45.9487 44.3831 47.486C43.951 48.8963 42.9552 50.1446 41.8426 51.0858C40.2898 52.3989 36.6832 54.292 34.9454 52.1937C33.2616 50.1602 35.6138 47.066 37.1538 45.765C38.5445 44.5896 40.7711 43.4412 42.673 43.8686Z" fill="url(#paint6_linear_4056_980)"/>
<path d="M42.6044 52.1101C45.9102 49.3244 47.2011 45.4179 45.4878 43.3846C43.7744 41.3513 39.7055 41.9613 36.3997 44.747C33.0939 47.5327 31.803 51.4393 33.5164 53.4726C35.2298 55.5058 39.2986 54.8958 42.6044 52.1101Z" fill="url(#paint7_radial_4056_980)"/>
</g>
<path d="M84.3496 92.2427C90.465 89.8143 95.3671 85.2564 99.9905 80.7128C110.228 70.6539 119.755 58.2989 124.457 44.595C126.377 38.9982 128.331 30.7433 123.128 26.2617C118.975 22.6835 112.096 21.5999 106.891 21.4554C97.2319 21.1854 88.2762 21.1165 78.8945 18.5429C71.7516 16.5843 64.2954 14.6021 57.7945 10.9625C54.1886 8.94248 51.1735 4.76339 46.8701 4.15036C40.7359 3.27741 32.6673 7.33093 27.9657 10.8875C21.4945 15.7843 17.9007 22.9191 12.927 29.1635C7.92831 35.4375 3.50213 41.3544 1.26608 49.1083C-0.494002 55.2102 -1.10973 66.4485 7.56442 67.5875C10.828 68.0162 14.2618 67.0622 17.1905 65.6647C25.7451 61.5828 31.6107 53.5365 39.3755 48.2806C44.6307 44.7233 50.5915 42.9518 56.8999 44.3756C63.6371 45.8967 70.2541 51.4078 69.2333 58.9957C68.8147 62.1074 67.43 65.1043 66.5402 68.1478C64.6768 74.5204 64.5317 83.9075 68.5649 89.5429C72.0054 94.3512 79.3725 94.2188 84.3489 92.2427H84.3496Z" fill="url(#paint8_radial_4056_980)"/>
<path d="M46.7373 0.760552C38.8085 -1.84007 27.3177 2.97972 21.0733 11.5249C14.8283 20.0701 16.1935 29.1048 24.1229 31.7054C32.0517 34.306 43.5412 29.4876 49.7862 20.9424C56.0312 12.3972 54.6667 3.36117 46.7379 0.760552H46.7373Z" fill="url(#paint9_linear_4056_980)"/>
<path d="M45.6761 1.10232C53.1424 3.55036 54.4272 12.0611 48.5467 20.1074C42.667 28.1536 31.8452 32.6919 24.3803 30.2432C16.9139 27.7952 15.6278 19.2857 21.5089 11.2395C27.388 3.19321 38.2111 -1.34707 45.6761 1.10232Z" fill="url(#paint10_linear_4056_980)"/>
<path d="M51.8953 4.39648L53.65 6.84047C56.5801 10.9203 56.0035 17.2787 51.5402 23.3867C45.2952 31.9319 33.8064 36.7503 25.877 34.1497C23.6153 33.4077 21.8869 32.1425 20.7176 30.5141L18.9629 28.0701C20.1322 29.6985 21.8599 30.9637 24.1223 31.7057C32.0517 34.3063 43.5405 29.4879 49.7855 20.9427C54.2489 14.8348 54.8254 8.47633 51.8953 4.39648Z" fill="url(#paint11_linear_4056_980)"/>
<path opacity="0.3" d="M30.51 10.8429L27.6899 7.95531C27.6096 7.87295 27.5097 7.81354 27.3956 7.7764C26.9716 7.63733 26.3585 7.80476 25.8981 8.23212C23.2057 10.7281 21.3072 13.5684 20.31 16.3533C20.1358 16.8401 20.3188 17.2344 20.7212 17.366C20.8575 17.4106 21.0182 17.4254 21.1992 17.4032L26.4497 16.7544C27.058 16.6787 27.6757 16.2102 27.9033 15.6573C28.3826 14.494 29.1725 13.322 30.2399 12.2593C30.7213 11.78 30.8354 11.1744 30.5093 10.8429H30.51Z" fill="#729EB1"/>
<path opacity="0.3" d="M47.882 3.91277C47.0286 3.22886 46.0395 2.71036 44.9505 2.35321C43.5166 1.88264 41.9097 1.69225 40.2111 1.77124C39.513 1.8023 38.7623 2.37954 38.5914 3.02497L37.3316 7.75902C37.2148 8.19583 37.3998 8.5415 37.7745 8.66438C37.8697 8.69543 37.9771 8.71231 38.0952 8.71299C38.8048 8.71434 39.4779 8.81358 40.0882 9.01342C40.5298 9.15858 40.9389 9.35639 41.3055 9.60822C41.3635 9.64805 41.4277 9.67911 41.4972 9.70206C41.8983 9.83371 42.466 9.68586 42.9184 9.31183L47.5201 5.50744C48.1385 4.99569 48.3134 4.25574 47.8833 3.91345L47.882 3.91277Z" fill="#729EB1"/>
<path opacity="0.3" d="M37.7762 12.1796C35.9864 11.5929 33.3938 12.6798 31.9842 14.6087C30.5745 16.5376 30.883 18.5758 32.6721 19.1632C34.4619 19.7498 37.0544 18.6629 38.4641 16.734C39.8738 14.8052 39.5653 12.7669 37.7762 12.1796Z" fill="#729EB1"/>
<path opacity="0.3" d="M32.6758 22.6779C32.5806 22.6468 32.4726 22.63 32.3537 22.63C31.6442 22.6286 30.9711 22.5294 30.3607 22.3295C29.9192 22.1844 29.5101 21.9866 29.1435 21.7347C29.0854 21.6949 29.0206 21.6638 28.951 21.6409C28.5493 21.5092 27.9822 21.6578 27.5306 22.0311L22.9383 25.8267C22.3165 26.3412 22.1484 27.0825 22.5805 27.4261C23.4676 28.1262 24.4648 28.6495 25.5524 29.0066C26.9756 29.4731 28.5527 29.6547 30.2406 29.5731C30.9373 29.54 31.686 28.9634 31.8555 28.3193L33.1166 23.5839C33.2334 23.1478 33.0491 22.8014 32.6751 22.6786L32.6758 22.6779Z" fill="#729EB1"/>
<path opacity="0.3" d="M49.7286 13.9759C49.5922 13.9313 49.4308 13.9164 49.2499 13.9394L43.9994 14.5882C43.3924 14.6625 42.7733 15.1303 42.5451 15.6853C42.0644 16.8499 41.2752 18.0219 40.2064 19.086C39.7251 19.564 39.6123 20.1675 39.9344 20.4997L42.745 23.4048C42.8253 23.4878 42.9259 23.5473 43.04 23.5851C43.4646 23.7241 44.079 23.5567 44.5401 23.128C47.2414 20.6178 49.1405 17.7748 50.139 14.9899C50.3132 14.5031 50.1309 14.1082 49.7286 13.9765V13.9759Z" fill="#729EB1"/>
<path d="M30.1154 10.6456L27.2954 7.75805C27.215 7.67568 27.1151 7.61627 27.001 7.57914C26.577 7.44006 25.964 7.60749 25.5036 8.03485C22.8111 10.5308 20.9127 13.3711 19.9155 16.1561C19.7413 16.6428 19.9243 17.0371 20.3266 17.1688C20.463 17.2133 20.6237 17.2282 20.8046 17.2059L26.0552 16.5571C26.6635 16.4815 27.2812 16.0129 27.5094 15.46C27.9887 14.2967 28.7787 13.1247 29.846 12.062C30.3274 11.5827 30.4415 10.9771 30.1154 10.6456Z" fill="url(#paint12_linear_4056_980)"/>
<path d="M25.9834 7.94834C25.9712 8.08202 25.9557 7.92674 25.9395 7.92134C25.8774 7.90041 25.789 7.92606 25.7322 7.98007C23.2228 10.3059 21.4539 12.9531 20.5242 15.549C20.4966 15.626 20.5256 15.6881 20.5837 15.7063C20.6019 15.7124 20.6242 15.7144 20.6512 15.7111L25.9004 15.0622C25.9874 15.0514 26.0793 14.9826 26.1144 14.8975C26.6592 13.5769 27.3053 12.3779 28.7683 11.0384C28.8345 10.9729 28.852 10.8845 28.8034 10.8366L25.9827 7.94767L25.9834 7.94834Z" fill="url(#paint13_linear_4056_980)"/>
<path d="M47.4874 3.71551C46.6341 3.0316 45.645 2.51309 44.556 2.15595C43.122 1.68538 41.5152 1.49499 39.8166 1.57398C39.1185 1.60504 38.3677 2.18228 38.1969 2.82771L36.9371 7.56176C36.8203 7.99857 37.0053 8.34424 37.38 8.46711C37.4752 8.49817 37.5825 8.51505 37.7007 8.51572C38.4103 8.51707 39.0834 8.61632 39.6937 8.81616C40.1352 8.96131 40.5444 9.15913 40.911 9.41095C40.969 9.45079 41.0332 9.48184 41.1027 9.5048C41.5037 9.63645 42.0715 9.48859 42.5239 9.11457L47.1256 5.31018C47.744 4.79843 47.9189 4.05848 47.4888 3.71618L47.4874 3.71551Z" fill="url(#paint14_linear_4056_980)"/>
<path d="M43.495 2.49743C44.5098 2.83027 45.4354 3.42371 46.228 3.95167C46.2833 3.99218 46.2611 4.09952 46.1659 4.17919L41.5648 7.9829C41.4986 8.03759 41.4156 8.05919 41.3596 8.04097C41.3501 8.03826 41.3366 7.9451 41.3332 8.02814C40.912 7.65344 40.4529 7.51706 39.9506 7.35233C39.2113 7.02421 38.4929 7.01206 37.6875 7.01071C37.8124 6.93847 37.6517 7.00801 37.6375 7.00328C37.5815 6.98505 37.5545 6.93442 37.5714 6.87366L38.8319 2.13826C38.8562 2.04576 38.9649 1.9607 39.0776 1.95462C40.6628 1.88103 42.1603 2.05859 43.4964 2.49675L43.495 2.49743Z" fill="url(#paint15_linear_4056_980)"/>
<path d="M37.3816 11.9823C35.5918 11.3956 32.9993 12.4826 31.5896 14.4114C30.18 16.3403 30.4885 18.3785 32.2776 18.9659C34.0674 19.5526 36.6599 18.4656 38.0696 16.5368C39.4793 14.6079 39.1707 12.5697 37.3816 11.9823Z" fill="url(#paint16_linear_4056_980)"/>
<path d="M36.3201 12.3241C37.6467 12.7582 37.8756 14.2725 36.8305 15.7018C35.7867 17.131 33.8612 17.9385 32.5353 17.503C31.2086 17.0689 30.9798 15.5546 32.0249 14.1253C33.0686 12.6961 34.9941 11.8886 36.3201 12.3241Z" fill="url(#paint17_linear_4056_980)"/>
<path d="M32.2812 22.4806C32.186 22.4496 32.078 22.4327 31.9592 22.4327C31.2496 22.4313 30.5765 22.3321 29.9662 22.1323C29.5247 21.9871 29.1155 21.7893 28.7489 21.5375C28.6909 21.4976 28.6261 21.4666 28.5565 21.4436C28.1548 21.312 27.5877 21.4605 27.136 21.8339L22.5438 25.6295C21.922 26.1439 21.7539 26.8852 22.1859 27.2289C23.0731 27.929 24.0702 28.4522 25.1579 28.8094C26.5811 29.2759 28.1582 29.4575 29.846 29.3758C30.5428 29.3427 31.2915 28.7661 31.4609 28.1221L32.7221 23.3867C32.8389 22.9505 32.6546 22.6042 32.2806 22.4813L32.2812 22.4806Z" fill="url(#paint18_linear_4056_980)"/>
<path d="M30.0237 27.69C29.9994 27.7825 29.8907 27.8676 29.78 27.8737C28.2069 27.95 26.6784 27.6657 25.4159 27.3471C24.4032 27.0149 23.4681 26.4181 22.6411 25.8705C22.583 25.8267 22.606 25.7173 22.6992 25.6397C22.6992 25.6397 27.2442 21.8832 27.2908 21.8447C27.4987 21.6726 27.7228 21.9608 27.8943 22.0587C28.4878 22.399 29.2149 22.6144 29.886 22.7312C30.2762 22.7994 30.659 22.7933 31.0519 22.8129C31.1384 22.8169 31.3328 22.8095 31.2849 22.9526L30.0237 27.6894V27.69Z" fill="url(#paint19_linear_4056_980)"/>
<path d="M49.3333 13.7786C49.197 13.734 49.0356 13.7192 48.8547 13.7421L43.6041 14.3909C42.9972 14.4652 42.3781 14.9331 42.1506 15.488C41.6699 16.6526 40.8806 17.8247 39.8119 18.8887C39.3305 19.3667 39.2178 19.9703 39.5398 20.3024L42.3504 23.2075C42.4308 23.2906 42.5314 23.35 42.6455 23.3878C43.0701 23.5269 43.6845 23.3594 44.1456 22.9307C46.8468 20.4206 48.746 17.5776 49.7445 14.7926C49.9187 14.3059 49.7364 13.9109 49.334 13.7793L49.3333 13.7786Z" fill="url(#paint20_linear_4056_980)"/>
<path d="M48.2723 14.1206C48.3296 14.1388 48.3594 14.201 48.331 14.2786C47.4007 16.8745 45.6305 19.5251 43.1102 21.8664C43.0541 21.9198 42.967 21.9454 42.9029 21.9245C42.886 21.9191 42.8712 21.7631 42.859 21.8975L40.0484 18.9924C40.0012 18.9445 40.0181 18.856 40.0835 18.7919C41.5486 17.4497 42.1954 16.2507 42.7409 14.9281C42.7767 14.8423 42.8671 14.7748 42.9522 14.7647L48.2041 14.1159C48.2331 14.1125 48.2547 14.1145 48.2723 14.1206Z" fill="url(#paint21_linear_4056_980)"/>
<path d="M118.277 27.1641L120.032 29.6081C122.961 33.6879 122.386 40.045 117.922 46.1523C111.677 54.6974 100.186 59.5172 92.2571 56.9166C89.9954 56.1746 88.2678 54.9094 87.0984 53.281L85.3438 50.837C86.5131 52.4654 88.2408 53.7306 90.5025 54.4726C98.4313 57.0732 109.923 52.2535 116.168 43.7083C120.631 37.601 121.206 31.2439 118.277 27.1641Z" fill="url(#paint22_linear_4056_980)"/>
<path d="M113.116 23.5273C105.187 20.9267 93.6976 25.7451 87.4526 34.2903C81.2076 42.8355 82.572 51.8715 90.5008 54.4721C98.4296 57.0727 109.921 52.2529 116.166 43.7078C122.411 35.1626 121.045 26.1279 113.115 23.5273H113.116Z" fill="url(#paint23_linear_4056_980)"/>
<path d="M114.928 42.8725C109.047 50.9181 98.2241 55.4584 90.7585 53.009C83.2921 50.561 82.0074 42.0502 87.8878 34.004C93.3429 26.539 102.962 22.74 110.388 23.4469C111.095 23.5144 113.016 24.201 113.573 24.4913C119.616 27.6442 120.383 35.4069 114.928 42.8719V42.8725Z" fill="url(#paint24_linear_4056_980)"/>
<path opacity="0.3" d="M97.6435 30.3579C95.263 29.5775 91.8137 31.025 89.9402 33.5885C88.0654 36.154 88.4752 38.8653 90.8557 39.6458C93.2349 40.4262 96.6842 38.9801 98.559 36.4153C100.433 33.8511 100.023 31.1377 97.6435 30.3579Z" fill="#729EB1"/>
<path opacity="0.3" d="M111.337 25.5034C108.956 24.723 105.507 26.1705 103.634 28.734C101.759 31.2995 102.169 34.0108 104.549 34.7913C106.928 35.5717 110.378 34.1256 112.252 31.5608C114.126 28.9966 113.716 26.2832 111.337 25.5034Z" fill="#729EB1"/>
<path opacity="0.3" d="M112.822 36.6316C110.347 35.7964 106.762 37.3452 104.815 40.0883C102.866 42.8327 103.292 45.7344 105.766 46.5696C108.239 47.4047 111.824 45.8573 113.773 43.1129C115.721 40.3698 115.294 37.4667 112.822 36.6316Z" fill="#729EB1"/>
<path opacity="0.3" d="M97.6435 41.4087C95.263 40.6283 91.8137 42.0757 89.9402 44.6392C88.0654 47.2048 88.4752 49.9161 90.8557 50.6966C93.2349 51.477 96.6842 50.0309 98.559 47.466C100.433 44.9019 100.023 42.1885 97.6435 41.4087Z" fill="#729EB1"/>
<path d="M97.249 29.9644C94.8685 29.1839 91.4192 30.6314 89.5457 33.1949C87.6709 35.7604 88.0807 38.4718 90.4612 39.2522C92.8404 40.0327 96.2896 38.5865 98.1645 36.0217C100.038 33.4575 99.6282 30.7442 97.249 29.9644Z" fill="url(#paint25_linear_4056_980)"/>
<path d="M96.1335 30.3235C98.0259 30.9432 98.3526 33.1057 96.8619 35.1446C95.3712 37.1855 92.6228 38.3373 90.731 37.7162C88.8373 37.0957 88.5105 34.9353 90.0026 32.895C91.4926 30.8555 94.2404 29.7023 96.1335 30.3235Z" fill="url(#paint26_linear_4056_980)"/>
<path d="M97.248 41.0065C94.8674 40.226 91.4195 41.6722 89.5447 44.237C87.6712 46.8005 88.081 49.5125 90.4608 50.293C92.8414 51.0734 96.2893 49.6273 98.1635 47.0638C100.038 44.4983 99.6285 41.7869 97.248 41.0065Z" fill="url(#paint27_linear_4056_980)"/>
<path d="M96.1311 41.3653C98.0249 41.9857 98.3516 44.1461 96.8596 46.1864C95.3702 48.226 92.6231 49.3778 90.7293 48.756C88.8356 48.1355 88.5088 45.9751 89.9995 43.9362C91.4902 41.8952 94.2373 40.7435 96.1304 41.3646L96.1311 41.3653Z" fill="url(#paint28_linear_4056_980)"/>
<path d="M110.821 25.108C108.441 24.3276 104.993 25.7737 103.118 28.3386C101.243 30.9041 101.653 33.6154 104.033 34.3959C106.414 35.1763 109.862 33.7302 111.737 31.1654C113.612 28.5998 113.202 25.8885 110.821 25.108Z" fill="url(#paint29_linear_4056_980)"/>
<path d="M109.706 25.4671C111.599 26.0876 111.926 28.248 110.434 30.2883C108.944 32.3292 106.196 33.481 104.303 32.8599C102.41 32.2394 102.083 30.079 103.575 28.0387C105.066 25.9978 107.813 24.846 109.706 25.4671Z" fill="url(#paint30_linear_4056_980)"/>
<path d="M112.403 36.2002C109.842 35.3604 106.131 36.9179 104.115 39.6758C102.098 42.4358 102.539 45.353 105.1 46.1929C107.66 47.0321 111.371 45.4766 113.388 42.7173C115.404 39.9587 114.963 37.0394 112.403 36.2002Z" fill="url(#paint31_linear_4056_980)"/>
<path d="M111.203 36.5866C113.239 37.2536 113.591 39.5794 111.987 41.7736C110.383 43.9692 107.426 45.2087 105.39 44.5397C103.353 43.872 103.002 41.5481 104.607 39.3526C106.209 37.1584 109.166 35.9175 111.203 36.5866Z" fill="url(#paint32_linear_4056_980)"/>
<path opacity="0.3" d="M78.7312 36.4309C78.4753 36.4147 78.2174 36.3648 77.9629 36.2784L72.416 34.39C70.8706 33.8641 70.0443 32.1843 70.5709 30.6396C71.0968 29.0943 72.7758 28.2679 74.3212 28.7945L79.8681 30.6828C81.4135 31.2088 82.2399 32.8885 81.7133 34.4332C81.2738 35.7241 80.0295 36.5133 78.7312 36.4316V36.4309Z" fill="#729EB1"/>
<path opacity="0.3" d="M64.1849 31.4787C63.929 31.4625 63.6711 31.4126 63.4166 31.3262L57.9021 29.4486C56.3567 28.9227 55.531 27.2429 56.0569 25.6982C56.5829 24.1528 58.2619 23.3265 59.8073 23.8531L65.3218 25.7306C66.8672 26.2566 67.6936 27.9363 67.167 29.481C66.7274 30.7719 65.4832 31.5611 64.1849 31.4794V31.4787Z" fill="#729EB1"/>
<path d="M78.3367 36.0374C78.0808 36.0212 77.8229 35.9712 77.5684 35.8848L72.0215 33.9965C70.4761 33.4705 69.6497 31.7908 70.1763 30.2461C70.7023 28.7007 72.3813 27.8743 73.9267 28.4009L79.4736 30.2893C81.019 30.8152 81.8454 32.495 81.3188 34.0397C80.8793 35.3305 79.635 36.1198 78.3367 36.0381V36.0374Z" fill="url(#paint33_linear_4056_980)"/>
<path d="M78.3367 36.0374C78.0808 36.0212 77.8229 35.9712 77.5684 35.8848L72.0215 33.9965C70.4761 33.4705 69.6497 31.7908 70.1763 30.2461C70.7023 28.7007 72.3813 27.8743 73.9267 28.4009L79.4736 30.2893C81.019 30.8152 81.8454 32.495 81.3188 34.0397C80.8793 35.3305 79.635 36.1198 78.3367 36.0381V36.0374Z" fill="url(#paint34_linear_4056_980)"/>
<path d="M63.7904 31.0852C63.5345 31.069 63.2766 31.019 63.022 30.9326L57.5075 29.0551C55.9622 28.5291 55.1365 26.8494 55.6624 25.3047C56.1883 23.7593 57.8674 22.9329 59.4128 23.4595L64.9273 25.3371C66.4727 25.863 67.299 27.5428 66.7724 29.0875C66.3329 30.3783 65.0886 31.1676 63.7904 31.0859V31.0852Z" fill="url(#paint35_linear_4056_980)"/>
<path d="M63.7904 31.0852C63.5345 31.069 63.2766 31.019 63.022 30.9326L57.5075 29.0551C55.9622 28.5291 55.1365 26.8494 55.6624 25.3047C56.1883 23.7593 57.8674 22.9329 59.4128 23.4595L64.9273 25.3371C66.4727 25.863 67.299 27.5428 66.7724 29.0875C66.3329 30.3783 65.0886 31.1676 63.7904 31.0859V31.0852Z" fill="url(#paint36_linear_4056_980)"/>
<defs>
<linearGradient id="paint0_linear_4056_980" x1="0.327979" y1="52.4679" x2="178.631" y2="52.4679" gradientUnits="userSpaceOnUse">
<stop offset="0.04" stop-color="#F3F8FB"/>
<stop offset="0.06" stop-color="#E3EEF1"/>
<stop offset="0.12" stop-color="#C8DEDF"/>
<stop offset="0.15" stop-color="#BED8D9"/>
<stop offset="0.17" stop-color="#B6D2D4"/>
<stop offset="0.2" stop-color="#A0C1C9"/>
<stop offset="0.24" stop-color="#7DA7B7"/>
<stop offset="0.25" stop-color="#729EB1"/>
<stop offset="0.27" stop-color="#76A1B3"/>
<stop offset="0.3" stop-color="#84ABBA"/>
<stop offset="0.32" stop-color="#9ABCC6"/>
<stop offset="0.34" stop-color="#B9D4D6"/>
<stop offset="0.35" stop-color="#BED8D9"/>
<stop offset="0.37" stop-color="#D5E6E8"/>
<stop offset="0.4" stop-color="#EBF3F5"/>
<stop offset="0.42" stop-color="#F3F8FB"/>
<stop offset="0.44" stop-color="#ECF3F6"/>
<stop offset="0.53" stop-color="#CADFE1"/>
<stop offset="0.59" stop-color="#BED8D9"/>
<stop offset="0.65" stop-color="#ABCACF"/>
<stop offset="0.77" stop-color="#7DA6B6"/>
<stop offset="0.8" stop-color="#729EB1"/>
</linearGradient>
<linearGradient id="paint1_linear_4056_980" x1="56.4956" y1="61.3939" x2="69.5284" y2="55.1799" gradientUnits="userSpaceOnUse">
<stop offset="0.02" stop-color="#F3F8FB"/>
<stop offset="0.09" stop-color="#E3EEF1"/>
<stop offset="0.23" stop-color="#C8DEDF"/>
<stop offset="0.32" stop-color="#BED8D9"/>
<stop offset="0.45" stop-color="#B6D2D4"/>
<stop offset="0.67" stop-color="#A0C1C9"/>
<stop offset="0.92" stop-color="#7DA7B7"/>
<stop offset="1" stop-color="#729EB1"/>
</linearGradient>
<linearGradient id="paint2_linear_4056_980" x1="56.9207" y1="50.839" x2="64.4775" y2="57.1191" gradientUnits="userSpaceOnUse">
<stop offset="0.02" stop-color="#F3F8FB"/>
<stop offset="0.45" stop-color="#E7F1F4"/>
<stop offset="1" stop-color="#DDEBEE"/>
</linearGradient>
<radialGradient id="paint3_radial_4056_980" cx="0" cy="0" r="1" gradientUnits="userSpaceOnUse" gradientTransform="translate(60.5937 54.0198) rotate(-24.56) scale(8.48806 6.45994)">
<stop offset="0.65" stop-color="#DAE9EC"/>
<stop offset="0.75" stop-color="#DAE9EC"/>
<stop offset="0.84" stop-color="#DAE9EC"/>
</radialGradient>
<linearGradient id="paint4_linear_4056_980" x1="5.14946" y1="12.5281" x2="126.018" y2="82.084" gradientUnits="userSpaceOnUse">
<stop stop-color="#B6D0D9"/>
<stop offset="0.09" stop-color="#C2D9E0"/>
<stop offset="0.18" stop-color="#C8DDE3"/>
<stop offset="0.43" stop-color="#DAE9EC"/>
<stop offset="0.79" stop-color="#B6D0D8"/>
<stop offset="0.84" stop-color="#AFCBD4"/>
<stop offset="0.9" stop-color="#9DBECA"/>
<stop offset="0.97" stop-color="#80A8B9"/>
<stop offset="1" stop-color="#729EB1"/>
</linearGradient>
<linearGradient id="paint5_linear_4056_980" x1="37.4932" y1="57.1356" x2="51.7365" y2="47.5365" gradientUnits="userSpaceOnUse">
<stop offset="0.02" stop-color="#F3F8FB"/>
<stop offset="0.09" stop-color="#E3EEF1"/>
<stop offset="0.23" stop-color="#C8DEDF"/>
<stop offset="0.32" stop-color="#BED8D9"/>
<stop offset="0.45" stop-color="#B6D2D4"/>
<stop offset="0.67" stop-color="#A0C1C9"/>
<stop offset="0.92" stop-color="#7DA7B7"/>
<stop offset="1" stop-color="#729EB1"/>
</linearGradient>
<linearGradient id="paint6_linear_4056_980" x1="37.12" y1="46.1222" x2="41.8716" y2="50.7705" gradientUnits="userSpaceOnUse">
<stop offset="0.02" stop-color="#F3F8FB"/>
<stop offset="0.45" stop-color="#E7F1F4"/>
<stop offset="1" stop-color="#DDEBEE"/>
</linearGradient>
<radialGradient id="paint7_radial_4056_980" cx="0" cy="0" r="1" gradientUnits="userSpaceOnUse" gradientTransform="translate(39.5113 48.3615) rotate(-40.12) scale(7.83123 4.79751)">
<stop offset="0.65" stop-color="#DAE9EC"/>
<stop offset="0.75" stop-color="#DAE9EC"/>
<stop offset="0.84" stop-color="#DAE9EC"/>
</radialGradient>
<radialGradient id="paint8_radial_4056_980" cx="0" cy="0" r="1" gradientUnits="userSpaceOnUse" gradientTransform="translate(87.3479 -30.5334) scale(129.936 129.936)">
<stop offset="0.37" stop-color="#729EB1"/>
<stop offset="0.4" stop-color="#88AEBD"/>
<stop offset="0.44" stop-color="#9CBDC9"/>
<stop offset="0.49" stop-color="#ABC7D1"/>
<stop offset="0.54" stop-color="#B3CED6"/>
<stop offset="0.63" stop-color="#B6D0D8"/>
<stop offset="0.71" stop-color="#BAD2DA"/>
<stop offset="0.8" stop-color="#C6DAE1"/>
<stop offset="0.88" stop-color="#DAE7EC"/>
<stop offset="0.96" stop-color="#F3F8FB"/>
</radialGradient>
<linearGradient id="paint9_linear_4056_980" x1="24.0966" y1="31.5062" x2="47.1923" y2="0.381806" gradientUnits="userSpaceOnUse">
<stop offset="0.02" stop-color="#F3F8FB"/>
<stop offset="0.18" stop-color="#E3EEF1"/>
<stop offset="0.52" stop-color="#C8DEDF"/>
<stop offset="0.72" stop-color="#BED8D9"/>
<stop offset="0.83" stop-color="#C6DDDE"/>
<stop offset="1" stop-color="#DDEBEE"/>
</linearGradient>
<linearGradient id="paint10_linear_4056_980" x1="26.1356" y1="7.15761" x2="44.2826" y2="24.5342" gradientUnits="userSpaceOnUse">
<stop offset="0.02" stop-color="#F3F8FB"/>
<stop offset="0.45" stop-color="#E7F1F4"/>
<stop offset="1" stop-color="#DDEBEE"/>
</linearGradient>
<linearGradient id="paint11_linear_4056_980" x1="25.1228" y1="36.0833" x2="56.385" y2="4.82114" gradientUnits="userSpaceOnUse">
<stop offset="0.02" stop-color="#F3F8FB"/>
<stop offset="0.09" stop-color="#E3EEF1"/>
<stop offset="0.23" stop-color="#C8DEDF"/>
<stop offset="0.32" stop-color="#BED8D9"/>
<stop offset="0.4" stop-color="#B6D2D4"/>
<stop offset="0.52" stop-color="#A0C1C9"/>
<stop offset="0.68" stop-color="#7DA7B7"/>
<stop offset="0.72" stop-color="#729EB1"/>
<stop offset="0.77" stop-color="#76A1B3"/>
<stop offset="0.83" stop-color="#84AABB"/>
<stop offset="0.88" stop-color="#9ABBC7"/>
<stop offset="0.94" stop-color="#B9D1D9"/>
<stop offset="0.99" stop-color="#DAE9EC"/>
</linearGradient>
<linearGradient id="paint12_linear_4056_980" x1="19.3031" y1="9.85975" x2="29.5584" y2="15.7712" gradientUnits="userSpaceOnUse">
<stop stop-color="#9A6CF0"/>
<stop offset="0.2" stop-color="#E8C7FC"/>
<stop offset="0.32" stop-color="#D3AFF8"/>
<stop offset="0.57" stop-color="#AA7EF2"/>
<stop offset="0.69" stop-color="#9A6CF0"/>
<stop offset="0.7" stop-color="#9769EB"/>
<stop offset="0.78" stop-color="#8359CE"/>
<stop offset="0.85" stop-color="#744EB9"/>
<stop offset="0.93" stop-color="#6B47AD"/>
<stop offset="1" stop-color="#6945A9"/>
</linearGradient>
<linearGradient id="paint13_linear_4056_980" x1="21.3358" y1="10.3275" x2="27.6044" y2="15.1669" gradientUnits="userSpaceOnUse">
<stop stop-color="#E8C7FC"/>
<stop offset="0.46" stop-color="#9A6CF0"/>
<stop offset="0.69" stop-color="#855BD1"/>
<stop offset="0.96" stop-color="#6945A9"/>
</linearGradient>
<linearGradient id="paint14_linear_4056_980" x1="35.8184" y1="4.0308" x2="49.5311" y2="7.52597" gradientUnits="userSpaceOnUse">
<stop stop-color="#E8C7FC"/>
<stop offset="0.09" stop-color="#E1BFFA"/>
<stop offset="0.22" stop-color="#CFAAF8"/>
<stop offset="0.39" stop-color="#B187F3"/>
<stop offset="0.5" stop-color="#9A6CF0"/>
<stop offset="0.92" stop-color="#6945A9"/>
</linearGradient>
<linearGradient id="paint15_linear_4056_980" x1="34.9829" y1="3.24278" x2="47.1495" y2="6.54216" gradientUnits="userSpaceOnUse">
<stop offset="0.16" stop-color="#E8C7FC"/>
<stop offset="0.18" stop-color="#E0BEFA"/>
<stop offset="0.39" stop-color="#AD83F3"/>
<stop offset="0.49" stop-color="#9A6CF0"/>
<stop offset="0.62" stop-color="#875DD4"/>
<stop offset="0.76" stop-color="#764FBC"/>
<stop offset="0.89" stop-color="#6C47AE"/>
<stop offset="1" stop-color="#6945A9"/>
</linearGradient>
<linearGradient id="paint16_linear_4056_980" x1="30.7498" y1="12.8282" x2="38.3174" y2="17.7358" gradientUnits="userSpaceOnUse">
<stop stop-color="#9A6CF0"/>
<stop offset="0.25" stop-color="#E8C7FC"/>
<stop offset="0.34" stop-color="#D3AFF8"/>
<stop offset="0.53" stop-color="#AA7EF2"/>
<stop offset="0.63" stop-color="#9A6CF0"/>
<stop offset="1" stop-color="#6945A9"/>
</linearGradient>
<linearGradient id="paint17_linear_4056_980" x1="31.8264" y1="12.7636" x2="36.817" y2="16.888" gradientUnits="userSpaceOnUse">
<stop stop-color="#E8C7FC"/>
<stop offset="0.46" stop-color="#9A6CF0"/>
<stop offset="0.69" stop-color="#855BD1"/>
<stop offset="0.96" stop-color="#6945A9"/>
</linearGradient>
<linearGradient id="paint18_linear_4056_980" x1="23.0933" y1="21.1479" x2="32.4412" y2="29.4237" gradientUnits="userSpaceOnUse">
<stop stop-color="#9A6CF0"/>
<stop offset="0.24" stop-color="#E8C7FC"/>
<stop offset="0.62" stop-color="#9A6CF0"/>
<stop offset="0.74" stop-color="#8D62DD"/>
<stop offset="0.97" stop-color="#6D48AE"/>
<stop offset="1" stop-color="#6945A9"/>
</linearGradient>
<linearGradient id="paint19_linear_4056_980" x1="24.2749" y1="22.0479" x2="30.9561" y2="27.8217" gradientUnits="userSpaceOnUse">
<stop stop-color="#E8C7FC"/>
<stop offset="0.46" stop-color="#9A6CF0"/>
<stop offset="0.69" stop-color="#855BD1"/>
<stop offset="0.96" stop-color="#6945A9"/>
</linearGradient>
<linearGradient id="paint20_linear_4056_980" x1="41.4532" y1="15.2389" x2="47.9392" y2="20.0209" gradientUnits="userSpaceOnUse">
<stop stop-color="#E8C7FC"/>
<stop offset="0.16" stop-color="#D3AFF8"/>
<stop offset="0.52" stop-color="#AA7EF2"/>
<stop offset="0.7" stop-color="#9A6CF0"/>
<stop offset="1" stop-color="#6945A9"/>
</linearGradient>
<linearGradient id="paint21_linear_4056_980" x1="41.5499" y1="14.6344" x2="47.6545" y2="19.7566" gradientUnits="userSpaceOnUse">
<stop stop-color="#E8C7FC"/>
<stop offset="0.16" stop-color="#C59FF6"/>
<stop offset="0.34" stop-color="#A67AF1"/>
<stop offset="0.43" stop-color="#9A6CF0"/>
<stop offset="0.56" stop-color="#9165E3"/>
<stop offset="0.79" stop-color="#7B53C4"/>
<stop offset="0.96" stop-color="#6945A9"/>
</linearGradient>
<linearGradient id="paint22_linear_4056_980" x1="93.6905" y1="59.7866" x2="118.144" y2="25.0313" gradientUnits="userSpaceOnUse">
<stop offset="0.02" stop-color="#F3F8FB"/>
<stop offset="0.09" stop-color="#E3EEF1"/>
<stop offset="0.23" stop-color="#C8DEDF"/>
<stop offset="0.32" stop-color="#BED8D9"/>
<stop offset="0.4" stop-color="#B6D2D4"/>
<stop offset="0.52" stop-color="#A0C1C9"/>
<stop offset="0.68" stop-color="#7DA7B7"/>
<stop offset="0.72" stop-color="#729EB1"/>
<stop offset="0.77" stop-color="#76A1B3"/>
<stop offset="0.83" stop-color="#84AABB"/>
<stop offset="0.88" stop-color="#9ABBC7"/>
<stop offset="0.94" stop-color="#B9D1D9"/>
<stop offset="0.99" stop-color="#DAE9EC"/>
</linearGradient>
<linearGradient id="paint23_linear_4056_980" x1="90.2746" y1="55.2046" x2="112.82" y2="23.5307" gradientUnits="userSpaceOnUse">
<stop offset="0.02" stop-color="#F3F8FB"/>
<stop offset="0.15" stop-color="#E3EEF1"/>
<stop offset="0.43" stop-color="#C8DEDF"/>
<stop offset="0.59" stop-color="#BED8D9"/>
<stop offset="0.75" stop-color="#C6DDDE"/>
<stop offset="1" stop-color="#DDEBEE"/>
</linearGradient>
<linearGradient id="paint24_linear_4056_980" x1="91.0967" y1="28.6886" x2="110.15" y2="46.7532" gradientUnits="userSpaceOnUse">
<stop offset="0.02" stop-color="#F3F8FB"/>
<stop offset="0.45" stop-color="#E7F1F4"/>
<stop offset="1" stop-color="#DDEBEE"/>
</linearGradient>
<linearGradient id="paint25_linear_4056_980" x1="89.1899" y1="31.7832" x2="97.9741" y2="37.1033" gradientUnits="userSpaceOnUse">
<stop stop-color="#9A6CF0"/>
<stop offset="0.25" stop-color="#E8C7FC"/>
<stop offset="0.34" stop-color="#D3AFF8"/>
<stop offset="0.53" stop-color="#AA7EF2"/>
<stop offset="0.63" stop-color="#9A6CF0"/>
<stop offset="1" stop-color="#6945A9"/>
</linearGradient>
<linearGradient id="paint26_linear_4056_980" x1="90.1754" y1="31.4091" x2="97.7167" y2="37.4549" gradientUnits="userSpaceOnUse">
<stop stop-color="#E8C7FC"/>
<stop offset="0.46" stop-color="#9A6CF0"/>
<stop offset="0.69" stop-color="#855BD1"/>
<stop offset="0.96" stop-color="#6945A9"/>
</linearGradient>
<linearGradient id="paint27_linear_4056_980" x1="89.6831" y1="42.8091" x2="98.4659" y2="48.7908" gradientUnits="userSpaceOnUse">
<stop stop-color="#67BF67"/>
<stop offset="0.25" stop-color="#B5E69F"/>
<stop offset="0.3" stop-color="#AAE097"/>
<stop offset="0.52" stop-color="#79C874"/>
<stop offset="0.63" stop-color="#67BF67"/>
<stop offset="0.98" stop-color="#31854C"/>
</linearGradient>
<linearGradient id="paint28_linear_4056_980" x1="90.1906" y1="42.4637" x2="97.3153" y2="48.1754" gradientUnits="userSpaceOnUse">
<stop stop-color="#B5E69F"/>
<stop offset="0.46" stop-color="#67BF67"/>
<stop offset="0.73" stop-color="#4BA159"/>
<stop offset="0.96" stop-color="#31854C"/>
</linearGradient>
<linearGradient id="paint29_linear_4056_980" x1="102.481" y1="27.1895" x2="111.609" y2="31.9188" gradientUnits="userSpaceOnUse">
<stop stop-color="#F6D246"/>
<stop offset="0.25" stop-color="#FFFDA6"/>
<stop offset="0.37" stop-color="#FAE882"/>
<stop offset="0.54" stop-color="#F4CD51"/>
<stop offset="0.63" stop-color="#F2C33F"/>
<stop offset="1" stop-color="#E09003"/>
</linearGradient>
<linearGradient id="paint30_linear_4056_980" x1="104.09" y1="26.8268" x2="110.743" y2="32.1604" gradientUnits="userSpaceOnUse">
<stop stop-color="#FFFDA6"/>
<stop offset="0.46" stop-color="#F6D246"/>
<stop offset="0.85" stop-color="#F0B32D"/>
<stop offset="0.96" stop-color="#EFAB26"/>
</linearGradient>
<linearGradient id="paint31_linear_4056_980" x1="103.476" y1="38.4633" x2="113.087" y2="43.4431" gradientUnits="userSpaceOnUse">
<stop stop-color="#E36139"/>
<stop offset="0.25" stop-color="#FDC08D"/>
<stop offset="0.37" stop-color="#F89C6A"/>
<stop offset="0.54" stop-color="#F26B3B"/>
<stop offset="0.63" stop-color="#F0592A"/>
<stop offset="1" stop-color="#C72F00"/>
</linearGradient>
<linearGradient id="paint32_linear_4056_980" x1="105.133" y1="37.9956" x2="112.398" y2="43.8922" gradientUnits="userSpaceOnUse">
<stop stop-color="#FDC08D"/>
<stop offset="0.46" stop-color="#F0592A"/>
<stop offset="0.83" stop-color="#D23A0B"/>
<stop offset="0.96" stop-color="#C72F00"/>
</linearGradient>
<linearGradient id="paint33_linear_4056_980" x1="76.7434" y1="29.3238" x2="74.7517" y2="34.9612" gradientUnits="userSpaceOnUse">
<stop offset="0.06" stop-color="#CF8AFF"/>
<stop offset="0.23" stop-color="#B37AF7"/>
<stop offset="0.39" stop-color="#A06FF1"/>
<stop offset="0.5" stop-color="#9A6CF0"/>
<stop offset="0.58" stop-color="#9367E7"/>
<stop offset="0.73" stop-color="#8359CF"/>
<stop offset="0.9" stop-color="#6945A9"/>
</linearGradient>
<linearGradient id="paint34_linear_4056_980" x1="72.8802" y1="27.7332" x2="78.6148" y2="36.5519" gradientUnits="userSpaceOnUse">
<stop stop-color="#CF8AFF"/>
<stop offset="0.06" stop-color="#C785FC"/>
<stop offset="0.36" stop-color="#A673F3"/>
<stop offset="0.53" stop-color="#9A6CF0"/>
<stop offset="0.64" stop-color="#9669EB"/>
<stop offset="0.75" stop-color="#8E62DE"/>
<stop offset="0.87" stop-color="#7F56C9"/>
<stop offset="0.99" stop-color="#6A46AB"/>
<stop offset="1" stop-color="#6945A9"/>
</linearGradient>
<linearGradient id="paint35_linear_4056_980" x1="62.6129" y1="23.2475" x2="60.0285" y2="30.5613" gradientUnits="userSpaceOnUse">
<stop offset="0.06" stop-color="#CF8AFF"/>
<stop offset="0.23" stop-color="#B37AF7"/>
<stop offset="0.39" stop-color="#A06FF1"/>
<stop offset="0.5" stop-color="#9A6CF0"/>
<stop offset="0.58" stop-color="#9367E7"/>
<stop offset="0.73" stop-color="#8359CF"/>
<stop offset="0.9" stop-color="#6945A9"/>
</linearGradient>
<linearGradient id="paint36_linear_4056_980" x1="57.6129" y1="21.6515" x2="64.2906" y2="31.9217" gradientUnits="userSpaceOnUse">
<stop offset="0.11" stop-color="#CF8AFF"/>
<stop offset="0.16" stop-color="#C785FC"/>
<stop offset="0.4" stop-color="#A673F3"/>
<stop offset="0.53" stop-color="#9A6CF0"/>
<stop offset="0.63" stop-color="#9669EB"/>
<stop offset="0.73" stop-color="#8E62DE"/>
<stop offset="0.84" stop-color="#7F56C9"/>
<stop offset="0.96" stop-color="#6945A9"/>
</linearGradient>
</defs>
</svg>
